# xmcd
#
# Track frame offsets: 
#        150
#        13076
#        31710
#        56167
#        72740
#        87928
#        107511
#        125136
#        148742
#        168935
#        199116
#        222264
#        240504
#        262185
#
# Disc length: 3713 seconds
#
# Revision: 0
# Processed by: cddbd v1.5.2PL0 Copyright (c) Steve Scherf et al.
# Submitted via: ExactAudioCopy v1.0b3
#
DISCID=d10e7f0e
DTITLE=Hans Theessink - Homecooking - Best of SONGS
DYEAR=2011
DGENRE=Blues
TTITLE0=Johnny and the devil
TTITLE1=Baby wants to boogie
TTITLE2=Slow Train
TTITLE3=Call Me
TTITLE4=Rock The Boat
TTITLE5=Crazy Moon
TTITLE6=Roll with the punches
TTITLE7=Ready for the ride
TTITLE8=Homeless
TTITLE9=What will the children play
TTITLE10=Set me free
TTITLE11=Stormwarning
TTITLE12=Man with a broken heart
TTITLE13=Sail Away
EXTD=
EXTT0=
EXTT1=
EXTT2=
EXTT3=
EXTT4=
EXTT5=
EXTT6=
EXTT7=
EXTT8=
EXTT9=
EXTT10=
EXTT11=
EXTT12=
EXTT13=
PLAYORDER=
